<svg width="181" height="181" viewBox="0 0 181 181" fill="none" xmlns="http://www.w3.org/2000/svg">
<path d="M181 0H0V181H181V0Z" fill="#717780"/>
<path d="M64.3333 86C61.5666 86 59.3333 88.2333 59.3333 91C59.3333 93.7667 61.5666 96 64.3333 96C67.1 96 69.3333 93.7667 69.3333 91C69.3333 88.2333 67.1 86 64.3333 86ZM64.3333 66C61.5666 66 59.3333 68.2333 59.3333 71C59.3333 73.7667 61.5666 76 64.3333 76C67.1 76 69.3333 73.7667 69.3333 71C69.3333 68.2333 67.1 66 64.3333 66ZM64.3333 106C61.5666 106 59.3333 108.267 59.3333 111C59.3333 113.733 61.6 116 64.3333 116C67.0666 116 69.3333 113.733 69.3333 111C69.3333 108.267 67.1 106 64.3333 106ZM74.3333 114.333H121V107.667H74.3333V114.333ZM74.3333 94.3333H121V87.6667H74.3333V94.3333ZM74.3333 67.6667V74.3333H121V67.6667H74.3333Z" fill="white"/>
</svg>
