<svg width="181" height="181" viewBox="0 0 181 181" fill="none" xmlns="http://www.w3.org/2000/svg">
<path d="M181 0H0V181H181V0Z" fill="#FFC267"/>
<path d="M107.667 74.3333H94.3333V81H107.667C113.167 81 117.667 85.5 117.667 91C117.667 96.5 113.167 101 107.667 101H94.3333V107.667H107.667C116.867 107.667 124.333 100.2 124.333 91C124.333 81.8 116.867 74.3333 107.667 74.3333ZM87.6667 101H74.3333C68.8333 101 64.3333 96.5 64.3333 91C64.3333 85.5 68.8333 81 74.3333 81H87.6667V74.3333H74.3333C65.1333 74.3333 57.6667 81.8 57.6667 91C57.6667 100.2 65.1333 107.667 74.3333 107.667H87.6667V101ZM77.6667 87.6667H104.333V94.3333H77.6667V87.6667ZM107.667 74.3333H94.3333V81H107.667C113.167 81 117.667 85.5 117.667 91C117.667 96.5 113.167 101 107.667 101H94.3333V107.667H107.667C116.867 107.667 124.333 100.2 124.333 91C124.333 81.8 116.867 74.3333 107.667 74.3333ZM87.6667 101H74.3333C68.8333 101 64.3333 96.5 64.3333 91C64.3333 85.5 68.8333 81 74.3333 81H87.6667V74.3333H74.3333C65.1333 74.3333 57.6667 81.8 57.6667 91C57.6667 100.2 65.1333 107.667 74.3333 107.667H87.6667V101ZM77.6667 87.6667H104.333V94.3333H77.6667V87.6667Z" fill="white"/>
</svg>
