<svg width="181" height="181" viewBox="0 0 181 181" fill="none" xmlns="http://www.w3.org/2000/svg">
<path d="M181 0H0V181H181V0Z" fill="#5C94C8"/>
<path d="M121 74.3333H74.3333V121H121V74.3333ZM114.333 81V87.6667H81V81H114.333ZM94.3333 101V94.3333H101V101H94.3333ZM101 107.667V114.333H94.3333V107.667H101ZM87.6667 101H81V94.3333H87.6667V101ZM107.667 94.3333H114.333V101H107.667V94.3333ZM81 107.667H87.6667V114.333H81V107.667ZM107.667 114.333V107.667H114.333V114.333H107.667ZM71 107.667H61V61H107.667V71H101V67.6667H67.6667V101H71V107.667Z" fill="white"/>
</svg>
