<svg width="181" height="181" viewBox="0 0 181 181" fill="none" xmlns="http://www.w3.org/2000/svg">
<g clip-path="url(#clip0)">
<path d="M183 0H2V181H183V0Z" fill="#F47E7E"/>
<path d="M119.667 77.6667H109.667V71.7C109.667 63 103.3 55.2333 94.6333 54.4C84.7 53.4667 76.3333 61.2667 76.3333 71V77.6667H66.3333V124.333H119.667V77.6667ZM93 107.667C89.3333 107.667 86.3333 104.667 86.3333 101C86.3333 97.3333 89.3333 94.3333 93 94.3333C96.6666 94.3333 99.6666 97.3333 99.6666 101C99.6666 104.667 96.6666 107.667 93 107.667ZM83 77.6667V71C83 65.4667 87.4666 61 93 61C98.5333 61 103 65.4667 103 71V77.6667H83Z" fill="white"/>
</g>
<defs>
<clipPath id="clip0">
<rect width="181" height="181" fill="white"/>
</clipPath>
</defs>
</svg>
